<?xml version="1.0" encoding="UTF-8" standalone="no"?>
<!-- Created with Inkscape (http://www.inkscape.org/) -->

<svg
   version="1.1"
   id="svg1"
   width="297"
   height="170"
   viewBox="0 0 297 170"
   sodipodi:docname="broto.svg"
   inkscape:export-filename="broto.png"
   inkscape:export-xdpi="96"
   inkscape:export-ydpi="96"
   inkscape:version="1.4.2 (f4327f4, 2025-05-13)"
   xmlns:inkscape="http://www.inkscape.org/namespaces/inkscape"
   xmlns:sodipodi="http://sodipodi.sourceforge.net/DTD/sodipodi-0.dtd"
   xmlns="http://www.w3.org/2000/svg"
   xmlns:svg="http://www.w3.org/2000/svg">
  <defs
     id="defs1" />
  <sodipodi:namedview
     id="namedview1"
     pagecolor="#ffffff"
     bordercolor="#000000"
     borderopacity="0.25"
     inkscape:showpageshadow="2"
     inkscape:pageopacity="0.0"
     inkscape:pagecheckerboard="0"
     inkscape:deskcolor="#d1d1d1"
     inkscape:zoom="3.057197"
     inkscape:cx="191.67885"
     inkscape:cy="104.5075"
     inkscape:window-width="1920"
     inkscape:window-height="974"
     inkscape:window-x="-11"
     inkscape:window-y="-11"
     inkscape:window-maximized="1"
     inkscape:current-layer="g1" />
  <g
     inkscape:groupmode="layer"
     inkscape:label="Image"
     id="g1">
    <path
       style="fill:#a1c72d;fill-opacity:1;stroke:#000000;stroke-width:1.00157;stroke-opacity:0"
       d="m 146.01332,74.727325 0.69388,2.428571 c 0,0 0.45134,1.468501 0.69388,2.197279 0.25794,0.775038 0.55274,1.537501 0.80952,2.312925 0.20314,0.613436 0.48074,1.211541 0.57823,1.85034 0.13376,0.876474 0.0201,1.773471 0,2.659864 -0.0193,0.848729 -0.0437,1.698327 -0.11565,2.544218 -0.1054,1.238683 -0.33384,2.464205 -0.46258,3.70068 -0.14422,1.385078 -0.2428,2.7746 -0.34694,4.163266 -0.13002,1.733677 -0.14255,3.477592 -0.34694,5.204082 -0.18849,1.59225 -0.64088,3.14702 -0.80952,4.74149 -0.0974,0.92084 -0.0438,1.85233 -0.11565,2.77551 -0.10543,1.35389 -0.22028,2.71142 -0.46258,4.04762 -0.19851,1.09473 -0.48406,2.17418 -0.80953,3.2381 -0.13199,0.43146 -0.34471,0.83658 -0.46258,1.27211 -0.11259,0.41602 -0.19259,0.84286 -0.23129,1.27211 -0.0312,0.34553 -0.2019,0.75867 0,1.04081 1.04285,1.4573 5.08843,1.7347 5.08843,1.7347 l 0.46259,-3.58504 0.57823,-4.97279 0.11564,-3.0068 c 0,0 1.40206,-6.13884 1.85034,-9.2517 0.12412,-0.86188 0.15195,-1.734894 0.2313,-2.602039 0.14994,-1.638716 0.26483,-3.281328 0.46258,-4.914966 0.12644,-1.044552 0.31504,-2.08067 0.46259,-3.122449 0.20184,-1.425045 0.25286,-2.876903 0.57823,-4.278912 0.22046,-0.949969 0.57677,-1.864653 0.92517,-2.77551 0.45028,-1.177196 0.93932,-2.34229 1.5034,-3.469388 0.55638,-1.111705 0.98069,-2.349748 1.85034,-3.238095 0.47172,-0.481866 1.13975,-0.723382 1.73469,-1.040816 0.639,-0.340942 1.96599,-0.92517 1.96599,-0.92517 l 0.34694,-0.578231 c 0,0 -2.38564,0.414973 -3.58504,0.578231 -0.69177,0.09416 -1.41207,0.03356 -2.08163,0.231292 -0.41334,0.122066 -0.78369,0.361908 -1.15646,0.578232 -0.48085,0.279051 -0.9487,0.584123 -1.38776,0.92517 -0.40958,0.318142 -0.72791,0.748738 -1.15646,1.040816 -0.35614,0.242725 -1.15646,0.578231 -1.15646,0.578231 0,0 -0.66988,-0.646108 -1.04082,-0.92517 -0.69225,-0.520789 -1.45043,-0.948829 -2.19728,-1.387755 -0.41642,-0.244735 -0.81811,-0.528992 -1.27211,-0.693877 -0.55426,-0.201298 -1.73469,-0.346939 -1.73469,-0.346939 z"
       id="path4"
       sodipodi:nodetypes="ccaaaaaaaaaaaaaaaccccaaaaaaaaaccaaaaacaaac" />
    <path
       style="fill:#559e46;fill-opacity:1;stroke:#000000;stroke-width:1.00157;stroke-opacity:0"
       d="m 151.03401,78.986395 -2.42857,-2.312926 c 0,0 -2.59126,-1.629495 -3.81632,-2.544217 -1.44747,-1.080791 -2.64578,-2.489333 -4.16327,-3.469388 -1.26,-0.813761 -2.68566,-1.337596 -4.04762,-1.965986 -1.22259,-0.564087 -2.43943,-1.147694 -3.70068,-1.619048 -0.60531,-0.226215 -1.23106,-0.393694 -1.85034,-0.578231 -1.28641,-0.383328 -2.57652,-0.755217 -3.87415,-1.09864 -1.17046,-0.309768 -2.35203,-0.575962 -3.52721,-0.867347 -1.61983,-0.401636 -3.23064,-0.840598 -4.85714,-1.214286 -1.19,-0.273401 -2.38969,-0.502726 -3.58504,-0.7517 -1.1176,-0.232782 -2.24211,-0.434065 -3.35374,-0.693878 -0.89225,-0.208537 -1.77828,-0.44407 -2.65986,-0.693877 -1.90058,-0.538553 -3.92258,-0.807118 -5.66667,-1.734694 -0.91957,-0.489061 -2.05126,-0.995201 -2.42857,-1.965986 -0.28242,-0.726648 0.0372,-1.5975 0.34694,-2.312926 0.37076,-0.85635 0.98855,-1.636861 1.73469,-2.197279 1.06462,-0.79962 3.70068,-1.503401 3.70068,-1.503401 0,0 3.07194,-0.65153 4.62585,-0.867347 2.10869,-0.292869 4.23381,-0.48176 6.36055,-0.578231 1.63664,-0.07424 3.27826,-0.07278 4.91496,0 1.9525,0.08682 3.90028,0.282243 5.84014,0.520408 2.59481,0.318576 5.18918,0.68005 7.7483,1.214286 2.4575,0.513022 4.99302,0.885373 7.28571,1.908163 1.98211,0.884239 3.78832,2.171583 5.43538,3.585034 0.82845,0.710948 1.62761,1.497308 2.19728,2.428571 0.62391,1.019936 0.91448,2.212847 1.27211,3.353742 0.2377,0.75832 0.43231,1.531734 0.57823,2.312925 0.1712,0.916517 0.32107,1.843499 0.34694,2.77551 0.0311,1.120138 -0.2313,3.353742 -0.2313,3.353742 L 153,75.285714 l -1.15646,3.122449 z"
       id="path2"
       sodipodi:nodetypes="ccaaaaaaaaaaaaaaacaaaaaaaaaaacccc" />
    <path
       style="fill:#93b529;fill-opacity:1;stroke:#000000;stroke-width:1.00157;stroke-opacity:0"
       d="m 146.62124,74.905216 1.30838,0.654194 1.63549,1.308388 c 0,0 1.06307,1.063066 1.39016,1.308389 0.3271,0.245322 1.30839,0.572419 1.30839,0.572419 l 0.98129,-0.981291 1.71726,-0.899517 0.89952,-0.490645 1.71726,-0.817743 1.55371,0.08177 h 0.73597 l -1.79904,1.55371 c 0,0 -0.73484,1.164817 -1.14484,1.71726 -0.35775,0.482046 -0.71737,0.968709 -1.14484,1.390162 -0.37286,0.367613 -0.75068,0.762992 -1.22661,0.981291 -0.80665,0.369993 -1.72933,0.485909 -2.61678,0.490646 -0.47054,0.0025 -0.97577,-0.0224 -1.39016,-0.245323 -0.62827,-0.33798 -1.02164,-1.000369 -1.47194,-1.553711 -0.48205,-0.592355 -0.90046,-1.235162 -1.30838,-1.880807 -0.23476,-0.371576 -0.43844,-0.76192 -0.6542,-1.14484 -0.13777,-0.244497 -0.2809,-0.486204 -0.40887,-0.735969 -0.23353,-0.455794 -0.65422,-1.390157 -0.65422,-1.390157 z"
       id="path9"
       sodipodi:nodetypes="cccsccccccccaaaaaaaaacc" />
    <path
       style="fill:#81bf71;fill-opacity:1;stroke:#000000;stroke-width:1.00157;stroke-opacity:0"
       d="m 115.64626,57.129252 c 0,0 15.35319,1.960369 22.43537,4.857143 1.6036,0.655907 3.04125,1.693713 4.39456,2.77551 2.12915,1.701982 3.99636,3.72309 5.78231,5.782313 1.01029,1.164872 2.77551,3.70068 2.77551,3.70068 l 1.38776,2.312925 c 0,0 -3.89248,-6.720088 -6.12925,-9.887755 -0.85426,-1.209786 -1.65711,-2.498554 -2.77551,-3.469388 -1.48779,-1.291482 -3.27181,-2.244372 -5.08844,-3.006803 -2.68577,-1.127204 -5.58191,-1.70475 -8.44217,-2.255102 -2.70686,-0.520834 -5.85164,-1.075339 -8.21089,-0.982993 -2.35925,0.09235 -6.12925,0.17347 -6.12925,0.17347 z"
       id="path5"
       sodipodi:nodetypes="caaaccaaaazc" />
    <path
       style="fill:#6ca610;fill-opacity:1;stroke:#000000;stroke-width:1.00157;stroke-opacity:0"
       d="m 152.59076,78.25796 c 0,0 -1.12016,-0.905376 -1.55371,-1.471936 -0.48916,-0.639233 -0.89447,-1.361137 -1.14484,-2.126131 -0.36811,-1.124749 -0.3707,-2.338935 -0.49065,-3.516293 -0.0858,-0.842396 -0.1906,-1.688676 -0.16355,-2.535001 0.0272,-0.851571 0.12711,-1.7068 0.3271,-2.535002 0.17001,-0.70403 0.25495,-1.502895 0.73597,-2.044357 0.72865,-0.820207 2.94388,-1.471936 2.94388,-1.471936 -0.0671,-0.234399 -1.43154,-0.03031 -0.81775,-0.163549 0.88819,-0.192803 0.40885,1.71726 0.40885,1.71726"
       id="path7"
       sodipodi:nodetypes="caaaaaassc" />
    <path
       style="fill:#7ec112;fill-opacity:1;stroke:#000000;stroke-width:1.00157;stroke-opacity:0"
       d="m 152.65306,79.333333 -1.04082,-3.006802 c 0,0 -0.58161,-2.071654 -0.80952,-3.122449 -0.20117,-0.92749 -0.39551,-1.860233 -0.49149,-2.804423 -0.10043,-0.987959 -0.19875,-1.991176 -0.0867,-2.97789 0.10335,-0.910446 0.39895,-1.792334 0.69388,-2.659864 0.26272,-0.77277 0.57164,-1.534037 0.95408,-2.255102 0.29058,-0.547869 0.70845,-1.020378 1.0119,-1.561225 0.52307,-0.932278 1.38776,-2.891156 1.38776,-2.891156 0,0 0.63444,1.215134 0.95408,1.821428 0.37396,0.709332 0.7603,1.412173 1.12755,2.125 0.26648,0.517223 0.54124,1.030914 0.78062,1.561225 0.19032,0.421644 0.42126,0.834702 0.5204,1.286564 0.17368,0.791612 0.10348,1.618221 0.11565,2.428571 0.008,0.549343 0.0444,1.103471 -0.0289,1.64796 -0.11948,0.887211 -0.41831,1.741468 -0.66496,2.602041 -0.1839,0.641642 -0.39287,1.276016 -0.60714,1.908163 -0.16441,0.485028 -0.35269,0.961688 -0.52041,1.445578 -0.13973,0.403127 -0.22648,0.826663 -0.40476,1.214286 -0.18785,0.408424 -0.45909,0.773093 -0.69388,1.156463 -0.18993,0.310129 -0.57823,0.92517 -0.57823,0.92517 z"
       id="path3"
       sodipodi:nodetypes="ccaaaaaacaaaaaaaaaaacc" />
    <path
       style="fill:#559e46;fill-opacity:1;stroke:#000000;stroke-width:1.00157;stroke-opacity:0"
       d="m 153.80952,77.45734 c 0,0 4.82838,-6.459778 7.63266,-9.341694 0.78147,-0.803105 1.65227,-1.518966 2.54421,-2.197279 1.77012,-1.346154 3.59429,-2.643972 5.55103,-3.70068 1.73251,-0.93562 3.55075,-1.742652 5.43537,-2.312925 1.8019,-0.545243 5.55102,-1.040816 5.55102,-1.040816 h 4.7415 l 3.81632,0.346938 3.93198,0.809524 4.85714,1.619048 c 0,0 2.32313,0.979346 3.46939,1.503401 1.05059,0.480315 2.15334,0.8747 3.12245,1.503401 0.55072,0.357277 1.10587,0.749698 1.5034,1.272109 0.33423,0.439228 0.60919,0.958003 0.69387,1.503402 0.0477,0.30711 -0.007,0.633886 -0.11564,0.92517 -0.14539,0.390799 -0.37759,0.769113 -0.69388,1.040816 -0.48403,0.415791 -1.12699,0.614947 -1.73469,0.809524 -1.0081,0.322777 -2.07249,0.443941 -3.12245,0.578231 -1.07337,0.137284 -3.2381,0.231293 -3.2381,0.231293 l -2.19728,0.115646 -2.42856,0.231292 -4.85715,0.578232 -3.93197,0.462585 c 0,0 -2.46492,0.400107 -3.70068,0.578231 -2.03975,0.294013 -4.49206,0.548114 -6.12926,0.809524 -1.63721,0.261409 -2.21611,0.150651 -3.81633,0.346938 -1.60023,0.196286 -4.22083,0.492791 -5.78231,0.693878 -1.56148,0.201087 -2.30647,0.49757 -3.46938,0.693878 -1.11275,0.187842 -3.35374,0.462585 -3.35374,0.462585 l -2.31293,0.462585 z"
       id="path1"
       sodipodi:nodetypes="caaaacccccaaaaaaaacccccazzzaccc" />
    <path
       style="fill:#81bf71;fill-opacity:1;stroke:#000000;stroke-width:0.958583;stroke-opacity:0"
       d="m 154.54006,76.113117 c 0,0 7.22367,-4.112112 11.05326,-5.698866 1.49733,-0.620406 3.05521,-1.102898 4.63118,-1.481348 2.12927,-0.511318 4.31359,-0.7646 6.48364,-1.058107 2.61564,-0.353776 5.23822,-0.689346 7.873,-0.846485 1.59891,-0.09536 3.20316,-0.06049 4.80491,-0.05782 1.2544,0.0021 2.50941,0.109201 3.76276,0.05782 1.97412,-0.08092 5.89929,-0.575849 5.89929,-0.575849 0,0 -3.66869,-0.376763 -5.49426,-0.633674 -0.77483,-0.109041 -1.53469,-0.335714 -2.31559,-0.385091 -2.15851,-0.136481 -4.3294,0.05733 -6.48364,0.249773 -2.01854,0.180318 -4.01991,0.523145 -6.02053,0.846485 -3.09839,0.500762 -6.19436,1.030947 -9.26235,1.692971 -0.85534,0.184569 -1.72511,0.335003 -2.54715,0.634863 -2.26063,0.824619 -6.48364,3.174319 -6.48364,3.174319 z"
       id="path6"
       sodipodi:nodetypes="caaaaaacaaaaaacc" />
    <path
       style="fill:#6ca610;fill-opacity:1;stroke:#000000;stroke-width:1.155;stroke-opacity:0"
       id="path10"
       sodipodi:type="arc"
       sodipodi:cx="154.38776"
       sodipodi:cy="76.5"
       sodipodi:rx="2.4675014"
       sodipodi:ry="1.6001546"
       sodipodi:start="2.0515303"
       sodipodi:end="5.9081798"
       sodipodi:arc-type="slice"
       d="m 153.24671,77.918786 a 2.4675014,1.6001546 0 0 1 -1.27946,-1.729608 2.4675014,1.6001546 0 0 1 2.19932,-1.282891 2.4675014,1.6001546 0 0 1 2.51721,1.007612 L 154.38776,76.5 Z" />
    <path
       style="fill:#559e46;fill-opacity:1;stroke:#000000;stroke-width:1.00157;stroke-opacity:0"
       d="m 147.11188,74.087473 3.92517,2.207905 1.79903,0.572421 1.57595,-0.626134 1.94034,-0.682255 c 0,0 2.78033,-0.817742 1.96259,-0.327097 -0.81775,0.490646 -2.45323,1.799034 -2.45323,1.799034 0,0 -2.06831,2.032028 -3.21315,2.522674 -1.14484,0.490645 -2.83815,-2.604448 -2.83815,-2.604448 z"
       id="path8"
       sodipodi:nodetypes="cccccscscc" />
  </g>
</svg>
